<svg xmlns="http://www.w3.org/2000/svg" viewBox="-62 -62 948 715" width="948" height="715">
<rect x="-62" y="-62" width="948" height="715" fill="#161A1D"/>
<g transform="translate(204.0 0)">
  <path d="M 0 66 C 0 51.6 9.5 34 18.9 23.2 C 28.8 11.7 43.9 0 65 0 L 194 0 L 194 105 C 194 126.8 181.6 147.3 168.7 162.3 C 153.4 180 135.6 186.7 111 194 L 87 194 L 87 117 C 87 103.8 105.9 87.2 117.1 79.6 C 131.2 70.1 142.7 66.2 161 60 L 65 60 A 5 5 0 0 0 60 65 L 60 194 L 0 194 Z" fill="#3B97E3"/>
  <path d="M 0 66 C 0 51.6 9.5 34 18.9 23.2 C 28.8 11.7 43.9 0 65 0 L 194 0 L 194 105 C 194 126.8 181.6 147.3 168.7 162.3 C 153.4 180 135.6 186.7 111 194 L 87 194 L 87 117 C 87 103.8 105.9 87.2 117.1 79.6 C 131.2 70.1 142.7 66.2 161 60 L 65 60 A 5 5 0 0 0 60 65 L 60 194 L 0 194 Z" fill="#FFFFFF" transform="rotate(90 208.0 208.0)"/>
  <path d="M 0 66 C 0 51.6 9.5 34 18.9 23.2 C 28.8 11.7 43.9 0 65 0 L 194 0 L 194 105 C 194 126.8 181.6 147.3 168.7 162.3 C 153.4 180 135.6 186.7 111 194 L 87 194 L 87 117 C 87 103.8 105.9 87.2 117.1 79.6 C 131.2 70.1 142.7 66.2 161 60 L 65 60 A 5 5 0 0 0 60 65 L 60 194 L 0 194 Z" fill="#3B97E3" transform="rotate(180 208.0 208.0)"/>
  <path d="M 0 66 C 0 51.6 9.5 34 18.9 23.2 C 28.8 11.7 43.9 0 65 0 L 194 0 L 194 105 C 194 126.8 181.6 147.3 168.7 162.3 C 153.4 180 135.6 186.7 111 194 L 87 194 L 87 117 C 87 103.8 105.9 87.2 117.1 79.6 C 131.2 70.1 142.7 66.2 161 60 L 65 60 A 5 5 0 0 0 60 65 L 60 194 L 0 194 Z" fill="#FFFFFF" transform="rotate(270 208.0 208.0)"/>
</g>
<g>
  <path d="M 36.12 591.75 C 33.86 591.28 31.78 591.01 30.25 591.0 C 29.18 590.99 28.28 590.82 27.62 590.5 C 27.07 590.23 26.14 590.01 25.55 590.01 C 24.96 590.0 24.04 589.77 23.5 589.5 C 22.96 589.23 22.17 589.0 21.74 589.0 C 21.31 589.0 20.67 588.77 20.32 588.5 C 19.97 588.23 19.49 588.0 19.26 588.0 C 19.02 588.0 18.62 587.77 18.38 587.5 C 18.13 587.23 17.68 587.0 17.38 587.0 C 17.07 587.0 16.62 586.77 16.38 586.5 C 16.13 586.23 15.79 586.0 15.63 586.0 C 15.2 586.0 11.34 583.07 9.85 581.62 C 9.15 580.93 8.25 579.92 7.85 579.38 C 7.45 578.83 6.99 578.29 6.81 578.18 C 6.64 578.07 6.5 577.83 6.5 577.65 C 6.5 577.47 6.27 577.12 6.0 576.88 C 5.73 576.63 5.5 576.23 5.5 576.0 C 5.5 575.77 5.27 575.37 5.0 575.12 C 4.73 574.88 4.5 574.42 4.5 574.12 C 4.5 573.82 4.27 573.28 4.0 572.93 C 3.73 572.58 3.5 572.03 3.5 571.71 C 3.5 571.38 3.27 570.7 3.0 570.18 C 2.73 569.67 2.5 568.96 2.5 568.61 C 2.5 568.26 2.29 567.5 2.03 566.92 C 1.77 566.34 1.5 564.98 1.42 563.86 C 1.34 562.75 1.16 561.53 1.01 561.15 C 0.66 560.22 0.67 533.9 1.02 530.88 C 1.17 529.64 1.37 527.78 1.46 526.75 C 1.56 525.61 1.8 524.63 2.06 524.26 C 2.3 523.92 2.5 523.24 2.5 522.76 C 2.5 522.27 2.73 521.54 3.0 521.12 C 3.27 520.71 3.5 520.02 3.5 519.6 C 3.5 519.17 3.73 518.53 4.0 518.18 C 4.28 517.83 4.5 517.37 4.5 517.16 C 4.5 516.95 4.62 516.7 4.77 516.61 C 4.92 516.52 5.26 515.98 5.53 515.41 C 7.0 512.3 9.14 509.77 12.92 506.71 C 14.99 505.03 15.49 504.68 16.5 504.2 C 16.84 504.03 17.39 503.69 17.72 503.45 C 18.05 503.2 18.57 503.0 18.88 503.0 C 19.18 503.0 19.72 502.77 20.07 502.5 C 20.42 502.23 20.94 502.0 21.24 502.0 C 21.53 502.0 22.21 501.77 22.75 501.5 C 23.29 501.23 23.99 501.0 24.3 500.99 C 24.62 500.98 25.32 500.8 25.88 500.59 C 26.43 500.37 27.85 500.1 29.05 499.99 C 30.24 499.88 31.48 499.64 31.8 499.45 C 32.71 498.93 52.37 498.83 53.59 499.34 C 54.08 499.55 55.69 499.79 57.18 499.89 C 59.02 500.01 60.17 500.21 60.8 500.53 C 61.31 500.79 62.1 501.0 62.55 501.0 C 63.0 501.0 63.71 501.23 64.12 501.5 C 64.54 501.77 65.14 502.0 65.46 502.0 C 65.78 502.0 66.33 502.23 66.68 502.5 C 67.03 502.77 67.51 503.0 67.75 503.0 C 67.99 503.0 68.33 503.18 68.51 503.39 C 68.69 503.6 69.18 503.92 69.61 504.1 C 70.03 504.28 70.91 504.95 71.57 505.59 C 72.23 506.23 72.93 506.75 73.14 506.75 C 73.46 506.75 73.5 504.35 73.47 488.15 C 73.45 477.92 73.52 469.43 73.61 469.28 C 73.73 469.08 76.32 469.0 82.13 469.0 C 90.27 469.0 90.49 469.01 90.75 469.51 C 91.05 470.07 90.91 555.75 90.6 561.18 C 90.49 563.22 90.29 564.45 89.97 565.17 C 89.71 565.75 89.5 566.63 89.5 567.14 C 89.5 567.64 89.34 568.4 89.14 568.84 C 88.8 569.57 88.55 570.22 87.74 572.5 C 87.57 572.98 87.33 573.54 87.21 573.75 C 87.09 573.96 86.82 574.5 86.61 574.96 C 86.39 575.42 86.11 575.93 85.98 576.09 C 85.85 576.25 85.37 576.94 84.93 577.62 C 83.45 579.92 77.03 586.0 76.09 586.0 C 76.01 586.0 75.67 586.23 75.32 586.5 C 74.97 586.77 74.49 587.0 74.25 587.0 C 74.02 587.0 73.57 587.23 73.25 587.5 C 72.93 587.77 72.44 588.0 72.15 588.0 C 71.86 588.0 71.29 588.23 70.88 588.5 C 70.46 588.77 69.84 589.0 69.5 589.0 C 69.16 589.01 68.38 589.23 67.79 589.51 C 67.19 589.78 66.28 590.0 65.78 590.0 C 65.28 590.0 64.45 590.23 63.93 590.5 C 63.23 590.88 62.52 591.0 61.06 591.0 C 59.98 591.0 58.49 591.18 57.74 591.4 C 56.63 591.72 54.61 591.81 46.75 591.88 C 41.46 591.93 36.68 591.87 36.12 591.75 Z M 141.5 591.76 C 140.88 591.65 139.7 591.43 138.88 591.28 C 138.05 591.13 136.36 591.0 135.12 590.99 C 133.43 590.99 132.63 590.86 131.88 590.5 C 131.32 590.23 130.4 590.01 129.81 590.01 C 129.23 590.0 128.33 589.77 127.82 589.5 C 127.3 589.23 126.6 589.0 126.25 589.0 C 125.91 589.0 125.29 588.77 124.88 588.5 C 124.46 588.23 123.89 588.0 123.6 588.0 C 123.31 588.0 122.87 587.77 122.62 587.5 C 122.38 587.23 121.97 587.0 121.73 587.0 C 120.85 587.0 117.3 584.31 114.44 581.47 C 112.82 579.87 111.5 578.45 111.5 578.32 C 111.5 578.19 111.27 577.87 111.0 577.62 C 110.73 577.38 110.5 577.04 110.5 576.88 C 110.5 576.71 110.27 576.37 110.0 576.12 C 109.73 575.88 109.5 575.48 109.5 575.24 C 109.5 575.01 109.27 574.53 109.0 574.18 C 108.73 573.83 108.5 573.45 108.49 573.34 C 108.49 573.22 108.27 572.67 108.0 572.12 C 107.73 571.58 107.51 570.98 107.51 570.8 C 107.5 570.63 107.27 570.04 107.0 569.5 C 106.73 568.96 106.5 568.15 106.5 567.7 C 106.5 567.25 106.33 566.55 106.12 566.16 C 105.92 565.76 105.68 564.8 105.61 564.03 C 105.53 563.26 105.24 561.26 104.96 559.6 C 104.49 556.77 104.46 555.72 104.55 543.6 C 104.64 531.99 104.7 530.55 105.07 529.88 C 105.33 529.41 105.5 528.57 105.5 527.69 C 105.5 526.71 105.65 526.01 106.0 525.44 C 106.27 524.99 106.5 524.2 106.5 523.68 C 106.5 523.16 106.73 522.29 107.0 521.75 C 107.28 521.21 107.5 520.53 107.5 520.24 C 107.5 519.94 107.67 519.4 107.87 519.04 C 108.07 518.67 108.4 517.98 108.61 517.5 C 108.82 517.02 109.1 516.43 109.24 516.19 C 109.39 515.95 109.58 515.59 109.69 515.4 C 110.03 514.78 111.8 512.25 112.47 511.43 C 114.39 509.09 119.0 505.0 119.72 505.0 C 119.83 505.0 120.13 504.77 120.38 504.5 C 120.62 504.23 121.02 504.0 121.25 504.0 C 121.48 504.0 121.88 503.77 122.12 503.5 C 122.37 503.23 122.83 503.0 123.13 503.0 C 123.43 503.0 123.97 502.77 124.32 502.5 C 124.67 502.23 125.26 502.0 125.63 502.0 C 126.01 502.0 126.67 501.79 127.1 501.53 C 127.52 501.27 128.46 501.0 129.17 500.92 C 129.89 500.84 130.81 500.6 131.22 500.39 C 131.7 500.14 132.63 500.0 133.75 500.0 C 134.73 500.0 136.34 499.8 137.33 499.56 C 138.88 499.18 140.45 499.12 149.0 499.12 C 156.58 499.12 159.09 499.2 159.82 499.46 C 160.33 499.64 161.91 499.88 163.32 499.99 C 164.72 500.1 166.29 500.37 166.8 500.59 C 167.32 500.82 168.16 501.0 168.68 501.0 C 169.21 501.0 170.05 501.23 170.57 501.5 C 171.08 501.77 171.71 502.0 171.97 502.0 C 172.23 502.0 172.58 502.17 172.75 502.38 C 172.92 502.58 173.5 502.82 174.02 502.91 C 174.55 502.99 175.17 503.27 175.4 503.53 C 175.64 503.79 176.07 504.0 176.38 504.0 C 176.68 504.0 177.13 504.23 177.38 504.5 C 177.62 504.77 177.92 505.0 178.03 505.0 C 178.34 505.0 180.31 506.38 181.39 507.36 C 183.9 509.63 185.5 511.42 186.12 512.64 C 186.5 513.38 186.96 514.11 187.15 514.27 C 187.34 514.43 187.5 514.78 187.5 515.05 C 187.5 515.32 187.73 515.83 188.0 516.18 C 188.27 516.53 188.5 517.06 188.5 517.35 C 188.5 517.64 188.73 518.21 189.0 518.62 C 189.27 519.04 189.5 519.66 189.51 520.0 C 189.52 520.34 189.7 521.08 189.91 521.62 C 190.12 522.17 190.4 523.29 190.52 524.09 C 190.65 524.9 190.93 526.08 191.16 526.72 C 191.5 527.69 191.56 529.18 191.57 536.04 C 191.58 543.61 191.54 544.38 191.02 546.66 C 190.71 548.02 190.24 549.54 189.98 550.05 C 189.72 550.56 189.5 551.19 189.5 551.44 C 189.5 551.7 189.24 552.16 188.92 552.46 L 188.34 553.0 L 155.48 553.06 L 122.62 553.12 L 122.55 555.82 C 122.51 557.63 122.62 559.15 122.9 560.45 C 123.12 561.51 123.39 562.79 123.49 563.3 C 123.6 563.81 123.86 564.51 124.09 564.86 C 124.32 565.2 124.5 565.64 124.5 565.83 C 124.5 566.02 124.7 566.41 124.94 566.71 C 125.18 567.0 125.66 567.65 126.0 568.14 C 127.14 569.8 128.27 570.85 129.99 571.88 C 130.22 572.01 130.61 572.32 130.85 572.56 C 131.09 572.8 131.5 573.0 131.76 573.0 C 132.02 573.0 132.61 573.22 133.06 573.5 C 133.51 573.77 134.1 574.0 134.38 574.0 C 134.65 574.0 135.21 574.19 135.62 574.41 C 136.13 574.68 137.4 574.88 139.5 575.01 C 141.22 575.11 143.3 575.34 144.12 575.5 C 145.74 575.83 149.74 575.74 158.5 575.18 C 162.38 574.94 163.5 574.78 163.99 574.44 C 164.33 574.2 164.93 574.0 165.32 574.0 C 165.71 574.0 166.44 573.78 166.95 573.52 C 167.46 573.26 168.16 572.92 168.5 572.77 C 168.84 572.61 169.58 572.22 170.12 571.88 C 170.67 571.55 171.35 571.17 171.62 571.04 C 171.9 570.91 172.84 570.12 173.7 569.28 C 175.52 567.52 176.0 567.42 177.4 568.5 C 177.94 568.91 178.59 569.42 178.86 569.63 C 179.13 569.83 179.48 570.0 179.64 570.0 C 179.79 570.0 180.13 570.23 180.38 570.5 C 180.62 570.77 180.96 571.0 181.12 571.0 C 181.29 571.0 181.63 571.23 181.88 571.5 C 182.12 571.77 182.44 572.0 182.58 572.0 C 182.72 572.0 183.04 572.19 183.29 572.42 C 183.82 572.89 184.53 573.32 185.67 573.86 C 186.11 574.07 186.54 574.36 186.62 574.5 C 186.71 574.64 187.17 574.92 187.64 575.12 C 188.83 575.61 188.78 576.4 187.45 578.2 C 185.86 580.34 181.01 585.0 180.36 585.0 C 180.25 585.0 179.92 585.22 179.64 585.48 C 179.02 586.06 175.36 588.0 174.9 588.0 C 174.72 588.0 174.28 588.23 173.93 588.5 C 173.58 588.77 172.98 589.0 172.59 589.0 C 172.19 589.0 171.51 589.23 171.06 589.5 C 170.54 589.81 169.79 590.0 169.06 590.0 C 168.3 590.0 167.61 590.18 167.12 590.5 C 166.56 590.87 165.95 591.0 164.62 591.0 C 163.66 591.01 162.2 591.18 161.38 591.4 C 160.19 591.71 158.04 591.81 151.25 591.88 C 146.51 591.92 142.12 591.87 141.5 591.76 Z M 344.62 591.73 C 341.75 591.31 338.86 591.04 337.06 591.02 C 335.75 591.0 334.99 590.86 334.32 590.5 C 333.78 590.21 332.9 590.0 332.25 590.0 C 331.55 590.0 330.84 589.81 330.38 589.5 C 329.96 589.23 329.34 589.0 329.0 589.0 C 328.66 589.0 328.04 588.77 327.62 588.5 C 327.21 588.23 326.64 588.0 326.35 588.0 C 326.06 588.0 325.57 587.77 325.25 587.5 C 324.93 587.23 324.47 587.0 324.23 587.0 C 323.98 587.0 323.71 586.89 323.63 586.76 C 323.48 586.52 321.31 585.0 321.11 585.0 C 320.48 585.0 313.52 577.77 313.49 577.09 C 313.49 576.97 313.04 576.2 312.49 575.38 C 311.95 574.56 311.5 573.71 311.5 573.51 C 311.5 573.3 311.27 572.76 311.0 572.31 C 310.72 571.86 310.5 571.27 310.5 570.99 C 310.5 570.72 310.27 570.08 310.0 569.57 C 309.73 569.05 309.5 568.26 309.5 567.81 C 309.5 567.35 309.33 566.59 309.13 566.1 C 308.53 564.66 308.24 561.55 308.03 554.0 C 307.61 539.3 308.09 526.15 309.1 524.7 C 309.32 524.39 309.5 523.71 309.5 523.19 C 309.5 522.67 309.73 521.83 310.0 521.32 C 310.27 520.8 310.5 520.14 310.5 519.85 C 310.5 519.55 310.66 519.18 310.86 519.01 C 311.06 518.85 311.3 518.36 311.39 517.92 C 311.49 517.48 311.78 516.86 312.03 516.53 C 312.29 516.2 312.5 515.8 312.5 515.63 C 312.5 515.46 312.73 515.12 313.0 514.88 C 313.27 514.63 313.5 514.28 313.5 514.1 C 313.5 513.93 313.64 513.64 313.82 513.46 C 313.99 513.27 314.31 512.84 314.54 512.5 C 315.65 510.78 320.73 506.0 321.44 506.0 C 321.57 506.0 321.88 505.77 322.12 505.5 C 322.37 505.23 322.72 505.0 322.9 505.0 C 323.21 505.0 324.52 504.21 325.61 503.37 C 325.88 503.17 326.28 503.0 326.49 503.0 C 326.7 503.0 327.21 502.77 327.62 502.5 C 328.04 502.23 328.55 502.0 328.75 502.0 C 328.96 502.0 329.55 501.77 330.07 501.5 C 330.58 501.23 331.42 501.0 331.94 501.0 C 332.46 501.0 333.3 500.77 333.82 500.5 C 334.48 500.15 335.24 500.0 336.44 499.99 C 337.37 499.99 338.86 499.81 339.75 499.59 C 342.24 498.99 359.39 498.8 363.01 499.34 C 364.45 499.55 366.58 499.8 367.75 499.89 C 368.92 499.97 370.52 500.26 371.31 500.52 C 372.1 500.79 373.12 501.0 373.57 501.0 C 374.02 501.0 374.8 501.23 375.32 501.5 C 375.83 501.77 376.48 502.0 376.77 502.0 C 377.06 502.0 377.58 502.23 377.93 502.5 C 378.28 502.77 378.76 503.0 379.0 503.0 C 379.24 503.0 379.72 503.23 380.07 503.5 C 380.42 503.77 380.84 504.0 381.0 504.0 C 381.16 504.0 381.58 504.23 381.93 504.5 C 382.28 504.77 382.7 505.0 382.87 505.0 C 383.04 505.0 383.38 505.23 383.62 505.5 C 383.87 505.77 384.21 506.0 384.38 506.0 C 384.54 506.0 384.88 506.23 385.12 506.5 C 385.37 506.78 385.69 507.0 385.82 507.0 C 386.5 507.0 391.5 512.72 391.5 513.5 C 391.5 513.63 391.73 513.85 392.0 514.0 C 392.27 514.15 392.5 514.47 392.5 514.72 C 392.5 514.97 392.73 515.43 393.0 515.75 C 393.27 516.07 393.5 516.52 393.5 516.75 C 393.5 516.99 393.73 517.47 394.0 517.82 C 394.27 518.17 394.5 518.66 394.5 518.91 C 394.5 519.17 394.73 519.71 395.0 520.12 C 395.27 520.54 395.5 521.27 395.5 521.75 C 395.5 522.23 395.73 522.96 396.0 523.38 C 396.33 523.87 396.5 524.55 396.5 525.38 C 396.5 526.08 396.75 527.31 397.04 528.13 C 397.58 529.61 397.59 529.81 397.58 545.38 C 397.58 560.84 397.57 561.15 397.04 562.72 C 396.74 563.6 396.5 564.83 396.5 565.47 C 396.5 566.2 396.31 566.9 396.0 567.38 C 395.72 567.79 395.5 568.55 395.5 569.08 C 395.5 569.6 395.29 570.44 395.02 570.95 C 394.25 572.45 393.5 574.16 393.5 574.43 C 393.5 574.56 393.27 574.88 393.0 575.12 C 392.73 575.37 392.5 575.67 392.5 575.78 C 392.5 576.64 388.54 581.25 386.03 583.3 C 383.07 585.73 382.7 586.0 382.36 586.0 C 382.21 586.0 381.87 586.23 381.62 586.5 C 381.38 586.77 380.93 587.0 380.62 587.0 C 380.32 587.0 379.87 587.23 379.62 587.5 C 379.38 587.77 378.97 588.0 378.72 588.0 C 378.47 588.0 377.78 588.21 377.19 588.47 C 375.31 589.29 373.66 589.79 372.21 589.99 C 371.44 590.1 370.31 590.36 369.71 590.58 C 369.11 590.79 367.6 591.03 366.34 591.1 C 365.09 591.18 363.74 591.38 363.34 591.54 C 362.47 591.91 346.93 592.07 344.62 591.73 Z M 433.62 591.75 C 431.67 591.18 430.79 591.01 429.75 591.0 C 429.06 591.0 428.34 590.81 427.88 590.5 C 427.46 590.23 426.79 590.0 426.38 590.0 C 425.96 589.99 425.34 589.77 425.0 589.5 C 424.66 589.23 424.08 589.01 423.73 589.01 C 423.37 589.0 422.82 588.77 422.5 588.5 C 422.18 588.23 421.79 588.0 421.62 588.0 C 421.46 588.0 421.09 587.8 420.8 587.56 C 420.5 587.32 419.51 586.56 418.58 585.88 C 416.51 584.34 415.79 583.61 414.15 581.38 C 412.55 579.2 411.5 577.17 411.5 576.26 C 411.5 575.88 411.29 575.3 411.04 574.97 C 410.78 574.64 410.5 573.72 410.41 572.91 C 410.31 572.1 410.07 571.21 409.87 570.92 C 409.57 570.49 409.5 569.33 409.51 564.76 C 409.51 561.55 409.63 558.69 409.78 558.12 C 409.93 557.58 410.18 556.44 410.34 555.6 C 410.5 554.76 410.76 553.92 410.91 553.72 C 411.07 553.53 411.28 552.84 411.38 552.18 C 411.48 551.53 411.67 550.93 411.8 550.84 C 411.93 550.76 412.26 550.23 412.53 549.66 C 412.8 549.09 413.2 548.29 413.42 547.88 C 413.95 546.91 418.87 542.0 419.33 542.0 C 419.52 542.0 419.88 541.77 420.12 541.5 C 420.37 541.23 420.71 541.0 420.88 541.0 C 421.05 541.0 421.47 540.77 421.82 540.5 C 422.17 540.23 422.65 540.0 422.89 540.0 C 423.13 540.0 423.78 539.79 424.35 539.53 C 425.91 538.81 428.7 538.06 430.46 537.87 C 431.33 537.77 432.35 537.54 432.71 537.35 C 433.11 537.14 434.15 537.0 435.29 537.0 C 436.34 537.0 438.09 536.82 439.17 536.6 C 440.84 536.25 443.58 536.19 458.05 536.15 C 467.36 536.13 475.06 536.03 475.16 535.93 C 475.34 535.75 475.3 530.79 475.12 530.49 C 475.07 530.4 474.9 529.57 474.75 528.63 C 474.6 527.69 474.26 526.44 473.99 525.85 C 473.72 525.26 473.5 524.62 473.5 524.42 C 473.5 524.23 473.27 523.78 473.0 523.43 C 472.73 523.08 472.5 522.68 472.5 522.53 C 472.5 522.39 472.27 522.15 472.0 522.0 C 471.73 521.85 471.5 521.59 471.5 521.42 C 471.5 521.04 469.42 519.0 469.03 519.0 C 468.89 519.0 468.65 518.77 468.5 518.5 C 468.35 518.23 468.11 518.0 467.97 518.0 C 467.82 518.0 467.42 517.77 467.07 517.5 C 466.72 517.23 466.08 517.0 465.65 516.99 C 465.23 516.99 464.42 516.77 463.88 516.5 C 463.16 516.15 462.33 516.01 460.95 516.01 C 459.89 516.0 458.38 515.83 457.58 515.62 C 455.91 515.19 448.83 515.13 444.38 515.52 C 442.86 515.65 440.56 515.85 439.25 515.96 C 437.86 516.07 436.54 516.33 436.07 516.58 C 435.63 516.81 435.06 517.0 434.8 517.0 C 434.54 517.0 434.12 517.23 433.88 517.5 C 433.63 517.77 433.23 518.0 433.0 518.0 C 432.77 518.0 432.37 518.23 432.12 518.5 C 431.88 518.77 431.53 519.0 431.36 519.0 C 431.01 519.0 427.5 522.43 427.5 522.78 C 427.5 523.21 426.07 523.0 425.62 522.5 C 425.38 522.23 425.05 522.0 424.89 522.0 C 424.74 522.0 424.42 521.77 424.18 521.5 C 423.95 521.23 423.53 521.0 423.24 521.0 C 422.96 521.0 422.67 520.83 422.59 520.62 C 422.51 520.4 422.09 520.06 421.66 519.86 C 420.3 519.2 419.39 518.68 419.05 518.33 C 418.86 518.15 418.5 518.0 418.24 518.0 C 417.98 518.0 417.65 517.77 417.5 517.5 C 417.35 517.23 417.05 517.0 416.82 517.0 C 416.27 517.0 414.5 515.76 414.5 515.38 C 414.5 515.21 414.73 514.87 415.0 514.62 C 415.27 514.38 415.5 514.04 415.5 513.88 C 415.5 513.71 415.73 513.37 416.0 513.12 C 416.27 512.88 416.5 512.57 416.5 512.44 C 416.5 512.07 419.32 508.73 420.67 507.5 C 421.87 506.4 424.45 504.38 425.29 503.88 C 426.63 503.08 428.89 502.0 429.23 502.0 C 429.45 502.0 429.96 501.77 430.38 501.5 C 430.79 501.23 431.5 501.0 431.95 501.0 C 432.4 501.0 433.13 500.82 433.56 500.6 C 434.02 500.35 435.45 500.1 437.11 499.97 C 438.63 499.85 440.21 499.61 440.62 499.44 C 441.87 498.92 459.44 499.02 462.5 499.57 C 463.81 499.81 465.49 500.0 466.25 500.0 C 467.07 500.01 468.06 500.21 468.71 500.51 C 469.31 500.78 470.13 501.0 470.53 501.0 C 470.93 501.0 471.67 501.23 472.18 501.5 C 472.7 501.77 473.38 502.0 473.71 502.0 C 474.03 502.0 474.58 502.23 474.93 502.5 C 475.28 502.77 475.79 503.0 476.06 503.0 C 476.33 503.0 476.83 503.23 477.18 503.5 C 477.53 503.77 477.95 504.0 478.12 504.0 C 478.29 504.0 478.63 504.23 478.88 504.5 C 479.12 504.77 479.53 505.0 479.78 505.0 C 480.03 505.0 480.35 505.23 480.5 505.5 C 480.65 505.77 480.89 506.0 481.03 506.0 C 481.57 506.0 484.2 508.43 485.83 510.42 C 487.29 512.21 488.23 513.79 490.05 517.57 C 490.3 518.09 490.5 518.85 490.5 519.27 C 490.5 519.68 490.73 520.46 491.0 521.0 C 491.29 521.56 491.5 522.47 491.5 523.14 C 491.5 523.78 491.7 524.93 491.94 525.71 C 492.34 527.03 492.38 529.33 492.38 558.62 L 492.38 590.12 L 485.59 590.19 C 481.54 590.23 478.54 590.16 478.15 590.01 C 477.59 589.8 477.5 589.62 477.5 588.67 C 477.5 588.07 477.33 587.03 477.12 586.35 C 476.91 585.68 476.67 584.2 476.58 583.06 C 476.45 581.33 476.36 581.0 475.99 581.0 C 475.75 581.0 475.49 581.16 475.42 581.35 C 475.29 581.7 472.88 583.76 471.75 584.5 C 471.44 584.71 470.89 585.1 470.53 585.38 C 469.08 586.49 468.25 587.0 467.92 587.0 C 467.73 587.0 467.28 587.23 466.93 587.5 C 466.58 587.77 466.15 588.0 465.96 588.0 C 465.78 588.0 465.29 588.23 464.88 588.5 C 464.46 588.77 463.86 589.0 463.53 589.0 C 463.2 589.0 462.58 589.21 462.15 589.47 C 461.73 589.73 460.89 590.01 460.29 590.1 C 459.7 590.19 458.97 590.41 458.67 590.6 C 458.37 590.79 457.21 591.0 456.09 591.07 C 454.98 591.14 453.8 591.35 453.47 591.54 C 453.0 591.8 450.87 591.89 443.62 591.92 C 438.54 591.95 434.04 591.87 433.62 591.75 Z M 542.62 591.74 C 541.8 591.62 540.62 591.41 540.0 591.27 C 539.38 591.13 537.86 591.01 536.62 591.0 C 534.94 590.99 534.12 590.86 533.38 590.5 C 532.81 590.23 531.83 590.01 531.12 590.01 C 530.31 590.0 529.61 589.82 529.12 589.5 C 528.71 589.23 528.12 589.0 527.81 589.0 C 527.5 589.0 526.83 588.77 526.32 588.5 C 525.8 588.23 525.2 588.0 524.98 588.0 C 524.76 588.0 524.37 587.77 524.12 587.5 C 523.88 587.23 523.48 587.0 523.25 587.0 C 523.02 587.0 522.62 586.77 522.38 586.5 C 522.13 586.23 521.79 586.0 521.62 586.0 C 521.46 586.0 521.12 585.77 520.88 585.5 C 520.63 585.23 520.27 585.0 520.09 585.0 C 519.91 585.0 518.54 583.79 517.06 582.31 C 513.9 579.17 512.73 577.86 512.3 577.0 C 512.13 576.66 511.77 576.04 511.5 575.62 C 511.23 575.21 510.88 574.59 510.73 574.25 C 510.58 573.91 510.24 573.21 509.98 572.7 C 509.72 572.19 509.5 571.63 509.5 571.45 C 509.5 571.27 509.27 570.7 509.0 570.18 C 508.73 569.67 508.5 568.83 508.5 568.31 C 508.5 567.79 508.31 567.09 508.08 566.77 C 507.83 566.41 507.59 565.33 507.46 564.02 C 507.35 562.84 507.13 561.09 506.98 560.12 C 506.82 559.13 506.65 553.65 506.59 547.38 C 506.49 538.35 506.55 535.68 506.88 532.5 C 507.11 530.37 507.37 527.84 507.48 526.88 C 507.58 525.91 507.81 524.84 508.0 524.5 C 508.19 524.16 508.42 523.42 508.52 522.88 C 508.72 521.81 509.43 519.62 509.79 519.0 C 509.91 518.79 510.13 518.34 510.28 518.0 C 510.43 517.66 510.66 517.21 510.78 517.0 C 510.91 516.79 511.15 516.34 511.32 516.0 C 511.58 515.46 512.56 513.96 514.66 510.9 C 515.8 509.24 519.57 505.84 521.38 504.85 C 521.65 504.7 522.27 504.34 522.75 504.04 C 523.23 503.75 523.91 503.38 524.25 503.23 C 524.59 503.08 525.33 502.75 525.88 502.51 C 527.41 501.83 529.24 501.24 530.62 500.97 C 531.31 500.83 532.21 500.58 532.62 500.39 C 533.04 500.21 534.36 500.0 535.56 499.92 C 536.75 499.84 537.99 499.63 538.31 499.45 C 538.73 499.21 540.94 499.11 546.88 499.05 C 553.52 498.98 555.32 499.03 557.5 499.39 C 558.94 499.62 561.02 499.87 562.12 499.94 C 563.56 500.02 564.29 500.19 564.72 500.53 C 565.08 500.82 565.72 501.0 566.35 501.0 C 566.95 501.0 567.68 501.21 568.12 501.5 C 568.54 501.77 569.14 502.0 569.46 502.0 C 569.78 502.0 570.33 502.23 570.68 502.5 C 571.03 502.77 571.51 503.0 571.74 503.0 C 571.98 503.0 572.38 503.23 572.62 503.5 C 572.87 503.77 573.23 504.0 573.42 504.0 C 573.6 504.0 574.61 504.67 575.65 505.5 C 577.64 507.08 577.86 507.19 578.16 506.69 C 578.27 506.52 578.33 498.11 578.3 488.0 C 578.27 477.89 578.33 469.48 578.45 469.31 C 578.61 469.06 580.5 469.01 587.02 469.06 L 595.38 469.12 L 595.37 516.38 L 595.37 563.62 L 594.32 567.57 C 593.75 569.73 593.1 571.75 592.89 572.06 C 592.67 572.36 592.5 572.81 592.5 573.04 C 592.5 573.63 591.53 575.43 589.77 578.11 C 588.83 579.54 584.11 584.23 582.72 585.12 C 582.5 585.26 581.93 585.59 581.47 585.85 C 581.01 586.11 580.54 586.47 580.43 586.66 C 580.32 586.85 580.0 587.0 579.71 587.0 C 579.43 587.0 578.92 587.23 578.57 587.5 C 578.22 587.77 577.75 588.0 577.53 588.0 C 577.3 588.0 576.7 588.23 576.18 588.5 C 575.67 588.77 575.01 589.0 574.72 589.0 C 574.42 589.0 573.83 589.21 573.4 589.47 C 572.98 589.73 571.98 590.0 571.19 590.07 C 570.41 590.15 569.51 590.39 569.2 590.61 C 568.83 590.87 568.09 591.0 567.0 591.0 C 566.1 591.0 564.74 591.18 563.99 591.4 C 562.88 591.72 560.88 591.81 553.38 591.88 C 548.29 591.92 543.45 591.86 542.62 591.74 Z M 235.62 590.26 C 234.94 590.14 233.64 590.03 232.74 590.02 C 231.63 590.01 230.79 589.84 230.12 589.5 C 229.59 589.23 228.73 589.0 228.23 589.0 C 227.7 589.0 227.05 588.79 226.68 588.5 C 226.33 588.23 225.77 588.0 225.44 588.0 C 225.1 588.0 224.62 587.77 224.38 587.5 C 224.13 587.23 223.67 587.0 223.37 587.0 C 223.06 587.0 222.67 586.84 222.51 586.63 C 222.34 586.43 221.96 586.19 221.66 586.1 C 220.85 585.85 218.87 584.17 216.5 581.73 C 213.94 579.09 213.71 578.83 213.31 578.01 C 213.14 577.66 212.67 576.81 212.27 576.12 C 211.86 575.44 211.53 574.65 211.51 574.38 C 211.5 574.1 211.27 573.54 211.0 573.12 C 210.73 572.71 210.5 572.06 210.5 571.68 C 210.5 571.29 210.32 570.63 210.1 570.2 C 209.88 569.78 209.53 567.96 209.32 566.15 C 208.75 561.29 208.59 470.42 209.15 469.56 L 209.51 469.0 L 217.98 469.0 C 225.54 469.0 226.48 469.04 226.78 469.41 C 227.07 469.76 227.13 476.98 227.14 514.23 C 227.15 559.47 227.21 562.46 228.09 564.54 C 229.2 567.14 229.35 567.38 231.17 569.23 C 232.69 570.78 233.23 571.19 234.5 571.76 C 234.84 571.92 235.54 572.26 236.05 572.52 C 236.62 572.82 237.48 573.0 238.3 573.0 C 239.09 573.0 239.93 573.18 240.38 573.43 C 241.07 573.83 243.2 573.86 269.17 573.9 C 284.6 573.93 297.34 574.02 297.48 574.11 C 297.66 574.23 297.75 576.76 297.75 581.87 C 297.75 588.33 297.69 589.52 297.37 589.84 C 297.04 590.18 293.87 590.23 270.68 590.24 C 256.21 590.24 242.69 590.3 240.62 590.36 C 238.56 590.42 236.31 590.37 235.62 590.26 Z M 456.84 575.41 C 457.38 575.18 458.37 575.0 459.05 575.0 C 459.73 575.0 460.81 574.79 461.45 574.53 C 464.48 573.33 465.41 573.0 465.79 573.0 C 466.01 573.0 466.33 572.84 466.49 572.63 C 466.66 572.43 467.04 572.19 467.33 572.1 C 468.47 571.74 472.5 568.05 472.5 567.37 C 472.5 567.28 472.73 566.92 473.0 566.57 C 473.27 566.22 473.5 565.77 473.5 565.57 C 473.5 565.37 473.73 564.92 474.0 564.57 C 474.27 564.22 474.5 563.57 474.5 563.12 C 474.5 562.68 474.73 561.79 475.02 561.15 C 475.48 560.09 475.53 559.58 475.45 555.88 C 475.4 553.32 475.27 551.67 475.1 551.5 C 474.9 551.3 470.01 551.23 458.25 551.24 C 449.14 551.25 441.6 551.31 441.51 551.37 C 441.42 551.43 440.05 551.61 438.48 551.76 C 436.84 551.93 435.16 552.26 434.53 552.53 C 433.93 552.79 433.24 553.0 433.0 553.0 C 432.76 553.0 432.28 553.23 431.93 553.5 C 431.58 553.77 431.22 554.0 431.13 554.0 C 430.91 554.0 428.5 556.39 428.5 556.61 C 428.5 556.71 428.27 557.08 428.0 557.43 C 427.73 557.78 427.5 558.26 427.5 558.51 C 427.5 558.75 427.28 559.44 427.01 560.04 C 426.3 561.6 426.29 565.28 427.0 566.44 C 427.28 566.89 427.5 567.58 427.5 567.97 C 427.5 568.36 427.73 568.97 428.0 569.32 C 428.27 569.67 428.5 570.06 428.5 570.2 C 428.5 570.74 432.63 574.0 433.32 574.0 C 433.49 574.0 433.96 574.23 434.38 574.5 C 434.79 574.77 435.48 575.0 435.92 575.0 C 436.36 575.0 437.03 575.13 437.42 575.28 C 438.95 575.9 440.17 575.97 447.88 575.9 C 454.58 575.83 456.03 575.75 456.84 575.41 Z M 58.32 574.5 C 58.87 574.2 59.73 574.0 60.44 574.0 C 61.2 574.0 61.89 573.82 62.38 573.5 C 62.79 573.23 63.31 573.0 63.54 573.0 C 64.42 573.0 66.69 571.55 68.26 570.0 C 69.78 568.5 71.5 565.94 71.5 565.19 C 71.5 565.02 71.68 564.54 71.89 564.14 C 72.1 563.74 72.56 561.95 72.91 560.18 L 73.54 556.96 L 73.45 543.92 C 73.36 532.47 73.3 530.74 72.93 529.75 C 72.7 529.13 72.51 528.4 72.5 528.12 C 72.5 527.84 72.29 527.23 72.03 526.75 C 71.78 526.27 71.49 525.52 71.39 525.08 C 71.3 524.65 71.06 524.23 70.86 524.15 C 70.66 524.08 70.5 523.9 70.5 523.75 C 70.5 523.61 69.94 522.77 69.25 521.9 C 68.05 520.37 65.0 518.0 64.23 518.0 C 64.04 518.0 63.54 517.77 63.12 517.5 C 62.71 517.23 62.06 517.0 61.68 517.0 C 61.3 517.0 60.18 516.77 59.19 516.5 C 57.5 516.03 56.64 516.0 45.63 516.01 C 39.16 516.02 33.43 516.12 32.88 516.25 C 30.6 516.76 29.58 517.07 28.7 517.52 C 28.19 517.79 27.62 518.0 27.43 518.0 C 27.23 518.0 26.87 518.23 26.62 518.5 C 26.38 518.77 26.04 519.0 25.88 519.0 C 25.55 519.0 22.5 522.08 22.5 522.41 C 22.5 522.54 22.27 522.83 22.0 523.07 C 21.73 523.3 21.5 523.68 21.5 523.9 C 21.5 524.12 21.27 524.58 21.0 524.93 C 20.73 525.28 20.5 525.72 20.5 525.91 C 20.5 526.1 20.27 526.67 20.0 527.18 C 19.73 527.7 19.5 528.57 19.5 529.12 C 19.5 529.67 19.31 530.69 19.07 531.38 C 18.71 532.46 18.64 534.24 18.56 545.12 C 18.47 557.03 18.49 557.73 18.98 559.93 C 19.27 561.21 19.5 562.52 19.5 562.86 C 19.5 564.31 22.32 568.7 24.6 570.81 C 25.69 571.81 27.78 573.0 28.46 573.0 C 28.69 573.0 29.21 573.23 29.62 573.5 C 30.15 573.85 30.8 574.0 31.8 574.0 C 32.58 574.0 33.29 574.11 33.37 574.25 C 33.74 574.84 35.78 574.96 46.25 574.98 C 56.93 575.0 57.42 574.98 58.32 574.5 Z M 364.59 574.63 C 365.02 574.43 366.09 574.16 366.97 574.02 C 367.84 573.88 368.82 573.6 369.15 573.38 C 369.47 573.17 369.94 573.0 370.2 573.0 C 370.46 573.0 370.88 572.77 371.12 572.5 C 371.37 572.23 371.77 572.0 372.0 572.0 C 372.72 572.0 376.5 568.1 376.5 567.35 C 376.5 567.19 376.66 566.93 376.85 566.77 C 377.04 566.61 377.28 566.18 377.37 565.82 C 377.46 565.46 377.75 564.89 378.02 564.55 C 378.28 564.21 378.5 563.66 378.5 563.33 C 378.5 562.99 378.72 562.19 378.98 561.55 C 379.69 559.82 379.83 557.26 379.84 545.62 C 379.85 535.54 379.65 531.46 379.07 530.37 C 378.92 530.1 378.72 529.31 378.62 528.62 C 378.52 527.94 378.24 526.98 378.0 526.5 C 377.76 526.02 377.29 525.07 376.97 524.39 C 376.38 523.16 372.53 519.0 371.98 519.0 C 371.83 519.0 371.42 518.77 371.07 518.5 C 370.72 518.23 370.27 518.0 370.07 518.0 C 369.87 518.0 369.42 517.77 369.07 517.5 C 368.7 517.21 368.05 517.0 367.53 517.0 C 367.03 517.0 366.29 516.81 365.88 516.59 C 364.81 516.02 358.94 515.79 349.12 515.94 C 342.15 516.04 340.95 516.12 339.76 516.53 C 339.01 516.79 338.09 517.0 337.72 517.0 C 336.45 517.0 333.05 519.01 331.15 520.88 C 329.19 522.8 328.5 523.67 328.5 524.2 C 328.5 524.39 328.27 524.83 328.0 525.18 C 327.73 525.53 327.5 526.06 327.5 526.35 C 327.5 526.64 327.32 527.21 327.1 527.62 C 326.88 528.04 326.56 529.61 326.39 531.12 C 326.21 532.64 325.94 534.19 325.79 534.58 C 325.59 535.07 325.5 538.71 325.5 546.7 C 325.5 556.62 325.56 558.22 325.9 558.88 C 326.11 559.29 326.38 560.47 326.49 561.5 C 326.6 562.53 326.86 563.71 327.06 564.12 C 327.27 564.54 327.76 565.54 328.16 566.35 C 328.95 567.98 332.74 572.0 333.49 572.0 C 333.73 572.0 334.13 572.23 334.38 572.5 C 334.62 572.77 335.01 573.0 335.23 573.0 C 335.45 573.0 335.96 573.23 336.38 573.5 C 336.83 573.8 337.55 574.0 338.19 574.0 C 338.77 574.0 339.67 574.23 340.18 574.5 C 341.08 574.98 341.6 575.0 352.46 575.0 C 361.89 575.0 363.93 574.94 364.59 574.63 Z M 562.75 574.5 C 563.32 574.21 564.23 574.0 564.93 574.0 C 565.7 574.0 566.39 573.82 566.88 573.5 C 567.29 573.23 567.92 573.0 568.27 573.0 C 568.63 573.0 569.13 572.77 569.38 572.5 C 569.62 572.23 569.97 572.0 570.13 572.0 C 570.56 572.0 573.05 570.03 573.78 569.12 C 574.66 568.02 575.5 566.79 575.5 566.61 C 575.5 566.53 575.73 566.17 576.0 565.82 C 576.27 565.47 576.5 564.96 576.5 564.68 C 576.5 564.41 576.71 563.83 576.97 563.4 C 577.25 562.94 577.5 561.88 577.6 560.79 C 577.69 559.78 577.87 558.75 578.0 558.49 C 578.34 557.87 578.3 533.79 577.97 532.12 C 577.83 531.44 577.64 530.09 577.54 529.12 C 577.45 528.1 577.19 527.12 576.94 526.76 C 576.7 526.42 576.5 525.85 576.5 525.5 C 576.5 525.14 576.3 524.59 576.06 524.28 C 573.79 521.31 573.19 520.71 570.22 518.44 C 569.91 518.2 569.43 518.0 569.16 518.0 C 568.89 518.0 568.47 517.83 568.24 517.61 C 568.0 517.4 567.26 517.13 566.59 517.02 C 565.92 516.9 564.72 516.62 563.93 516.4 C 562.71 516.07 560.74 516.0 551.43 515.98 C 540.92 515.96 540.29 515.99 538.75 516.48 C 537.86 516.76 536.81 517.0 536.41 517.0 C 536.02 517.0 535.42 517.23 535.07 517.5 C 534.72 517.77 534.24 518.0 534.0 518.0 C 533.76 518.0 533.28 518.23 532.93 518.5 C 532.58 518.77 532.2 519.0 532.09 519.0 C 531.5 519.01 527.5 523.36 527.5 523.99 C 527.5 524.15 527.29 524.69 527.02 525.2 C 525.95 527.29 525.68 528.27 525.36 531.25 C 525.18 532.97 524.91 534.83 524.77 535.4 C 524.61 536.04 524.55 540.42 524.61 547.27 C 524.68 555.97 524.78 558.52 525.1 560.12 C 525.32 561.23 525.5 562.38 525.5 562.7 C 525.5 563.2 526.27 564.96 527.4 567.05 C 527.97 568.1 531.47 571.51 532.36 571.88 C 532.8 572.07 533.31 572.4 533.49 572.61 C 533.67 572.82 534.09 573.0 534.43 573.0 C 534.77 573.0 535.33 573.23 535.68 573.5 C 536.12 573.84 536.7 574.0 537.51 574.0 C 538.16 574.0 539.19 574.22 539.79 574.49 C 540.81 574.96 541.45 574.99 551.32 574.99 C 561.28 575.0 561.82 574.98 562.75 574.5 Z M 174.48 537.77 C 174.77 537.58 174.8 536.74 174.67 532.85 C 174.53 528.66 174.46 528.07 174.01 527.46 C 173.73 527.08 173.5 526.39 173.5 525.92 C 173.5 525.45 173.3 524.8 173.06 524.47 C 172.82 524.14 172.51 523.69 172.38 523.47 C 170.9 521.12 169.3 519.37 168.38 519.09 C 168.1 519.01 167.7 518.79 167.49 518.6 C 166.8 518.0 164.74 517.0 164.17 516.99 C 163.87 516.99 163.17 516.77 162.62 516.5 C 162.07 516.23 161.06 516.01 160.38 516.0 C 159.69 515.99 158.39 515.82 157.5 515.62 C 155.05 515.09 149.64 515.18 139.0 515.96 C 137.19 516.09 135.47 516.36 134.91 516.59 C 134.37 516.82 133.74 517.0 133.49 517.0 C 133.05 517.0 130.66 518.13 130.07 518.62 C 129.9 518.76 129.34 519.21 128.81 519.61 C 127.49 520.64 125.83 522.73 125.08 524.31 C 124.73 525.03 124.24 526.04 123.98 526.55 C 123.7 527.08 123.5 527.98 123.5 528.68 C 123.5 529.37 123.3 530.25 123.04 530.75 C 122.48 531.79 122.13 537.28 122.58 537.73 C 122.92 538.07 173.95 538.1 174.48 537.77 Z" fill="#3B97E3"/>
  <path d="M 633.88 591.37 C 633.46 591.18 632.59 591.02 631.95 591.01 C 631.03 591.0 630.71 590.89 630.5 590.5 C 630.35 590.23 629.98 590.0 629.67 590.0 C 629.34 590.0 628.74 589.61 628.23 589.06 C 627.76 588.55 626.97 587.8 626.5 587.41 C 625.59 586.66 624.5 584.93 624.5 584.23 C 624.5 584.01 624.27 583.57 624.0 583.25 C 623.55 582.74 623.5 582.31 623.5 579.37 C 623.5 576.78 623.58 576.0 623.86 575.76 C 624.06 575.59 624.3 574.96 624.39 574.35 C 624.49 573.67 624.73 573.14 625.0 573.0 C 625.24 572.87 625.51 572.48 625.6 572.14 C 625.76 571.5 628.13 569.0 628.58 569.0 C 628.72 569.0 629.41 568.6 630.12 568.12 C 631.21 567.36 631.71 567.2 633.63 566.98 C 636.58 566.63 639.78 566.88 640.6 567.52 C 640.93 567.78 641.32 568.0 641.47 568.0 C 641.73 568.0 642.63 568.58 644.21 569.75 C 644.67 570.09 645.22 570.71 645.43 571.12 C 645.65 571.54 646.14 572.29 646.54 572.79 C 646.93 573.29 647.35 574.22 647.47 574.85 C 647.59 575.47 647.87 576.27 648.09 576.61 C 648.77 577.64 648.65 580.62 647.86 582.34 C 647.51 583.11 647.29 583.87 647.38 584.02 C 647.48 584.16 647.33 584.53 647.05 584.83 C 646.78 585.13 646.47 585.65 646.37 585.98 C 646.27 586.31 646.06 586.75 645.91 586.94 C 645.28 587.73 643.86 589.0 643.6 589.0 C 643.44 589.0 643.03 589.23 642.68 589.5 C 642.33 589.77 641.87 590.0 641.65 590.0 C 641.43 590.0 641.05 590.23 640.82 590.5 C 640.53 590.84 640.08 591.0 639.44 591.0 C 638.91 591.0 638.08 591.17 637.59 591.38 C 636.49 591.83 634.88 591.83 633.88 591.37 Z M 809.12 591.37 C 808.58 591.19 807.51 591.03 806.75 591.01 C 805.99 591.0 804.98 590.88 804.5 590.75 C 801.99 590.08 800.8 589.71 800.09 589.37 C 799.65 589.17 799.02 589.0 798.69 589.0 C 798.35 589.0 797.87 588.77 797.62 588.5 C 797.38 588.23 796.97 588.0 796.72 588.0 C 796.47 588.0 796.07 587.8 795.82 587.55 C 795.58 587.3 794.59 586.58 793.62 585.94 C 791.6 584.58 789.74 582.9 789.29 582.0 C 788.64 580.7 788.27 580.16 787.89 579.95 C 787.68 579.82 787.5 579.52 787.5 579.27 C 787.5 579.02 787.28 578.53 787.0 578.18 C 786.72 577.83 786.5 577.33 786.5 577.06 C 786.5 576.8 786.28 576.37 786.0 576.12 C 785.72 575.87 785.5 575.36 785.5 574.94 C 785.5 574.53 785.28 573.93 785.01 573.59 C 784.68 573.16 784.54 572.61 784.55 571.8 C 784.57 571.07 784.4 570.29 784.1 569.75 C 783.64 568.91 783.62 567.93 783.55 543.06 C 783.51 528.87 783.4 517.24 783.3 517.23 C 783.21 517.22 780.28 517.18 776.8 517.14 C 771.75 517.09 770.4 517.0 770.15 516.73 C 769.92 516.46 769.88 515.67 770.02 513.5 C 770.13 511.92 770.22 508.98 770.23 506.97 C 770.24 504.25 770.34 503.24 770.58 503.04 C 770.8 502.85 773.06 502.74 777.15 502.69 L 783.38 502.62 L 783.5 492.57 C 783.59 485.23 783.71 482.44 783.93 482.22 C 784.31 481.84 799.74 481.89 800.12 482.28 C 800.28 482.43 800.41 486.24 800.46 492.32 C 800.51 498.96 800.63 502.23 800.82 502.45 C 801.04 502.72 803.32 502.77 812.88 502.71 C 822.02 502.64 824.76 502.7 825.05 502.94 C 825.36 503.2 825.43 504.33 825.47 509.98 C 825.49 514.14 825.41 516.77 825.26 516.87 C 825.13 516.95 819.57 517.04 812.9 517.07 C 806.24 517.1 800.7 517.22 800.58 517.33 C 800.47 517.45 800.41 528.06 800.44 540.92 C 800.5 559.6 800.58 564.45 800.84 565.08 C 801.02 565.52 801.25 566.31 801.35 566.83 C 801.59 568.09 802.43 569.7 803.03 570.02 C 803.29 570.15 803.5 570.42 803.5 570.61 C 803.5 571.18 804.79 572.54 805.68 572.91 C 806.13 573.1 806.5 573.35 806.5 573.47 C 806.5 573.9 809.06 575.0 810.09 575.01 C 810.66 575.01 811.41 575.18 811.75 575.38 C 812.53 575.82 819.0 575.9 819.79 575.48 C 820.51 575.09 824.76 574.95 825.17 575.29 C 825.53 575.59 825.64 583.78 825.33 587.72 L 825.17 589.81 L 823.9 590.4 C 822.82 590.91 822.23 591.0 820.0 591.0 C 818.16 591.0 817.16 591.12 816.66 591.38 C 815.74 591.85 810.58 591.85 809.12 591.37 Z M 752.48 590.64 C 752.4 590.57 749.05 590.5 745.03 590.48 L 737.72 590.46 L 737.49 589.84 C 737.15 588.94 737.17 503.87 737.51 503.23 C 737.76 502.77 738.12 502.75 745.87 502.75 C 751.01 502.75 754.03 502.84 754.13 503.0 C 754.39 503.43 754.38 589.97 754.11 590.23 C 753.81 590.53 752.65 590.82 752.48 590.64 Z M 678.46 590.1 C 678.07 589.66 678.04 586.92 678.07 553.78 L 678.1 517.93 L 677.56 517.5 C 677.08 517.11 676.31 517.06 670.97 517.02 C 667.64 516.99 664.82 516.92 664.71 516.85 C 664.59 516.78 664.5 513.7 664.5 510.02 C 664.5 504.28 664.56 503.26 664.89 502.99 C 665.18 502.75 666.68 502.68 671.15 502.73 C 676.07 502.77 677.13 502.72 677.62 502.4 C 678.19 502.03 678.2 501.92 678.34 496.57 C 678.57 487.83 678.59 487.59 679.07 487.06 C 679.36 486.74 679.5 486.17 679.5 485.31 C 679.5 484.6 679.62 483.95 679.77 483.86 C 679.92 483.77 680.62 482.5 681.34 481.04 C 682.05 479.57 683.03 477.93 683.51 477.38 C 684.72 475.98 687.79 473.0 688.01 473.0 C 688.11 473.0 688.63 472.61 689.16 472.14 C 689.69 471.66 690.4 471.21 690.74 471.12 C 691.08 471.03 691.5 470.75 691.69 470.48 C 691.9 470.19 692.32 470.0 692.77 470.0 C 693.18 470.0 693.96 469.77 694.5 469.5 C 695.04 469.23 695.63 469.0 695.81 469.0 C 695.99 469.0 696.55 468.77 697.07 468.5 C 697.76 468.13 698.49 468.0 699.94 467.99 C 701.14 467.99 702.11 467.85 702.5 467.62 C 703.36 467.13 708.48 467.14 712.5 467.64 C 718.24 468.36 718.62 468.43 719.56 468.84 L 720.5 469.26 L 720.5 475.99 C 720.5 481.77 720.44 482.77 720.11 483.11 C 719.64 483.57 719.28 483.6 718.33 483.23 C 717.9 483.07 715.02 482.95 710.88 482.94 L 704.12 482.92 L 701.99 483.84 C 700.35 484.55 699.59 485.05 698.74 485.99 C 697.05 487.85 696.5 488.65 696.5 489.27 C 696.5 489.58 696.3 490.05 696.06 490.32 C 695.67 490.75 695.62 491.43 695.62 496.71 L 695.62 502.62 L 707.75 502.75 C 714.42 502.82 720.02 502.97 720.19 503.08 C 720.42 503.23 720.5 504.84 720.5 509.72 C 720.5 514.48 720.42 516.26 720.19 516.57 C 719.91 516.93 718.66 516.99 707.99 517.07 C 701.45 517.12 695.97 517.24 695.8 517.34 C 695.57 517.49 695.5 524.47 695.5 548.2 C 695.5 565.07 695.43 581.31 695.34 584.28 C 695.19 589.02 695.12 589.71 694.74 589.95 C 694.47 590.12 691.39 590.29 686.59 590.39 C 679.23 590.56 678.86 590.55 678.46 590.1 Z M 742.5 488.82 C 742.29 488.75 741.96 488.55 741.75 488.38 C 741.54 488.21 741.06 487.99 740.68 487.9 C 739.68 487.66 736.85 484.81 736.68 483.88 C 736.61 483.46 736.42 482.39 736.25 481.5 C 735.94 479.77 736.08 475.89 736.53 474.12 C 737.22 471.41 738.5 469.83 740.93 468.68 C 742.61 467.88 742.67 467.88 746.38 467.88 L 750.12 467.89 L 751.88 469.18 C 754.37 471.02 755.47 472.24 755.46 473.14 C 755.45 473.54 755.57 474.19 755.72 474.58 C 756.35 476.18 755.75 484.26 754.96 484.85 C 754.75 485.0 754.47 485.45 754.34 485.86 C 754.2 486.26 753.88 486.71 753.61 486.86 C 753.35 487.0 752.86 487.32 752.53 487.56 C 752.2 487.8 751.58 488.0 751.15 488.01 C 750.73 488.01 749.92 488.23 749.38 488.5 C 748.57 488.89 747.85 488.98 745.62 488.97 C 744.11 488.97 742.71 488.9 742.5 488.82 Z" fill="#FFFFFF"/>
</g>
</svg>
